<?xml version="1.0" encoding="UTF-8"?>
<svg xmlns="http://www.w3.org/2000/svg" xmlns:xlink="http://www.w3.org/1999/xlink" width="32px" height="35px" viewBox="0 0 32 35" version="1.1">
<g id="surface1">
<path style="fill-rule:nonzero;fill:rgb(0%,0%,0%);fill-opacity:1;stroke-width:16;stroke-linecap:butt;stroke-linejoin:miter;stroke:rgb(0%,0%,0%);stroke-opacity:1;stroke-miterlimit:4;" d="M 315.576172 828.85978 C 334.570313 826.887969 356.640625 826.296425 370.263672 810.916299 C 386.669922 791.493959 385.449219 762.804108 376.171875 740.473347 C 361.474609 703.107526 330.029297 675.255694 295.605469 655.88265 C 264.990234 639.270142 230.322266 630.396992 195.361328 630.889945 L 195.361328 630.840649 C 134.277344 632.516689 74.316406 663.720599 38.574219 713.213058 C 22.265625 736.184658 11.669922 766.057596 19.970703 794.008018 C 24.462891 808.057173 35.498047 819.345791 49.951172 822.796461 C 135.205078 833.641422 230.419922 837.387863 315.576172 828.85978 Z M 137.451172 869.626975 C 125.244141 909.999807 115.429688 937.851639 117.041016 980.294873 C 118.408203 997.498925 123.193359 1017.956465 140.136719 1026.139481 C 160.205078 1036.097127 183.59375 1033.188706 205.371094 1033.87884 C 225.78125 1033.681659 246.972656 1034.470383 266.357422 1027.667635 C 282.617188 1019.632505 291.308594 1001.146775 291.113281 983.548361 C 295.068359 941.055832 282.958984 911.380075 271.142578 871.105833 Z M 137.451172 869.626975 " transform="matrix(0.08,0,0,0.0792419,0,-48.457743)"/>
</g>
</svg>
