<?xml version="1.0" encoding="UTF-8"?>
<svg xmlns="http://www.w3.org/2000/svg" xmlns:xlink="http://www.w3.org/1999/xlink" width="24px" height="24px" viewBox="0 0 22 24" version="1.1">
<g id="surface1">
<path style="fill-rule:nonzero;fill:rgb(0%,0%,0%);fill-opacity:1;stroke-width:16;stroke-linecap:butt;stroke-linejoin:miter;stroke:rgb(0%,0%,0%);stroke-opacity:1;stroke-miterlimit:4;" d="M 315.553977 828.837186 C 334.588068 826.896185 356.676136 826.321073 370.3125 810.936838 C 386.647727 791.454934 385.440341 762.843133 376.207386 740.485671 C 361.434659 703.103418 330.042614 675.210507 295.596591 655.87238 C 264.985795 639.266034 230.326705 630.351804 195.383523 630.855027 C 134.303977 632.508473 74.289773 663.708276 38.565341 713.167871 C 22.301136 736.172334 11.647727 766.078136 19.957386 794.042936 C 24.502841 808.061281 35.511364 819.347845 49.928977 822.798515 C 135.227273 833.653746 230.397727 837.391971 315.553977 828.837186 Z M 137.5 869.670108 C 125.213068 909.999807 115.411932 937.892718 117.045455 980.307197 C 118.394886 997.488655 123.153409 1017.977005 140.127841 1026.172345 C 160.15625 1036.093019 183.59375 1033.217462 205.326705 1033.864462 C 225.78125 1033.648795 246.946023 1034.511463 266.335227 1027.682013 C 282.599432 1019.630451 291.264205 1001.154991 291.122159 983.542199 C 295.028409 941.055832 282.954545 911.365697 271.164773 871.107887 Z M 137.5 869.670108 " transform="matrix(0.055,0,0,0.0543373,0,-33.228167)"/>
</g>
</svg>
