<?xml version="1.0" encoding="UTF-8"?>
<svg xmlns="http://www.w3.org/2000/svg" xmlns:xlink="http://www.w3.org/1999/xlink" width="24px" height="26px" viewBox="0 0 24 26" version="1.1">
<g id="surface1">
<path style="fill-rule:nonzero;fill:rgb(100%,100%,100%);fill-opacity:1;stroke-width:16;stroke-linecap:butt;stroke-linejoin:miter;stroke:rgb(100%,100%,100%);stroke-opacity:1;stroke-miterlimit:4;" d="M 315.559896 828.842716 C 334.570312 826.918304 356.640625 826.321073 370.247396 810.925779 C 386.653646 791.482584 385.416667 762.815484 376.171875 740.452491 C 361.458333 703.158718 330.013021 675.221567 295.638021 655.91109 C 265.039062 639.254974 230.273438 630.362864 195.377604 630.893736 L 195.377604 630.827377 C 134.244792 632.552712 74.283854 663.675096 38.541667 713.178931 C 22.265625 736.205513 11.653646 766.067076 19.986979 794.004227 C 24.479167 808.005981 35.481771 819.353375 49.934896 822.804045 C 135.221354 833.620566 230.403646 837.403031 315.559896 828.842716 Z M 137.434896 869.653518 C 125.260417 909.999807 115.429688 937.870599 117.057292 980.274017 C 118.424479 997.461005 123.177083 1017.965945 140.104167 1026.128105 C 160.15625 1036.08196 183.59375 1033.162162 205.338542 1033.892112 C 225.78125 1033.693035 246.940104 1034.489343 266.341146 1027.654363 C 282.617188 1019.624921 291.276042 1001.177111 291.080729 983.52561 C 295.052083 941.055832 283.007812 911.393347 271.158854 871.113417 Z M 137.434896 869.653518 " transform="matrix(0.06,0,0,0.0588654,0,-35.99718)"/>
</g>
</svg>
